<svg xmlns="http://www.w3.org/2000/svg" viewBox="0 0 48 42"><defs><style>.a{fill:#74b1b2;}</style></defs><path class="a" d="M27,.426V6.834A5.98,5.98,0,0,1,30,12v6a6.006,6.006,0,0,1-6,6H12a6.006,6.006,0,0,1-6-6V12a6.006,6.006,0,0,1,6-6h3V0H12A12.012,12.012,0,0,0,0,12v6A12.012,12.012,0,0,0,12,30H24A12.012,12.012,0,0,0,36,18V12A11.984,11.984,0,0,0,27,.426Z" transform="translate(12 12)"/><path class="a" d="M24,0H12A12.012,12.012,0,0,0,0,12v6A11.984,11.984,0,0,0,9,29.574V23.166A5.98,5.98,0,0,1,6,18V12a6.006,6.006,0,0,1,6-6H24a6.006,6.006,0,0,1,6,6v6a6.006,6.006,0,0,1-6,6H21v6h3A12.012,12.012,0,0,0,36,18V12A12.012,12.012,0,0,0,24,0Z"/></svg>