<?xml version="1.0" encoding="UTF-8"?>
<svg width="40px" height="40px" viewBox="0 0 40 40" version="1.1" xmlns="http://www.w3.org/2000/svg" xmlns:xlink="http://www.w3.org/1999/xlink">
    <!-- Generator: Sketch 48.2 (47327) - http://www.bohemiancoding.com/sketch -->
    <title>logo-medium</title>
    <desc>Created with Sketch.</desc>
    <defs></defs>
    <g id="UserfeedsMain-Copy" stroke="none" stroke-width="1" fill="none" fill-rule="evenodd" transform="translate(-1090.000000, -267.000000)">
        <g id="Group-46-Copy" transform="translate(1090.000000, 267.000000)">
            <g id="logo-medium">
                <circle id="Oval-6" fill="#000000" cx="20" cy="20" r="20"></circle>
                <path d="M27.5,12 L12.5,12 C12.2238576,12 12,12.2238576 12,12.5 L12,27.5 C12,27.7761424 12.2238576,28 12.5,28 L27.5,28 C27.7761424,28 28,27.7761424 28,27.5 L28,12.5 C28,12.2238576 27.7761424,12 27.5,12 Z M25.29225,15.79075 L24.43425,16.6135 C24.3601817,16.669779 24.3234863,16.7625289 24.339,16.85425 L24.339,22.9 C24.3234863,22.9917211 24.3601817,23.084471 24.43425,23.14075 L25.27225,23.9635 L25.27225,24.144 L21.057,24.144 L21.057,23.9635 L21.925,23.12025 C22.01025,23.035 22.01025,23.01 22.01025,22.8795 L22.01025,17.99325 L19.59675,24.1235 L19.27175,24.1235 L16.4605,17.99325 L16.4605,22.10175 C16.4370734,22.2744663 16.4944219,22.448356 16.616,22.57325 L17.745,23.94275 L17.745,24.12325 L14.5435,24.12325 L14.5435,23.94275 L15.6725,22.57325 C15.793196,22.4481497 15.8472114,22.2731101 15.818,22.10175 L15.818,17.35175 C15.830977,17.2201854 15.7806847,17.0902791 15.6825,17.00175 L14.679,15.79275 L14.679,15.61225 L17.79525,15.61225 L20.204,20.89475 L22.32175,15.61225 L25.29225,15.61225 L25.29225,15.79075 Z" id="Shape" fill="#FFFFFF" fill-rule="nonzero"></path>
            </g>
        </g>
    </g>
</svg>