<svg xmlns="http://www.w3.org/2000/svg" viewBox="0 0 83.447 93.615"><defs><style>.a{fill:#c7a2a6;}</style></defs><g transform="translate(-0.553)"><g transform="translate(0 29)"><path class="a" d="M4.751,27.34a8.258,8.258,0,0,1,2.48-13.154,15.3,15.3,0,0,1,1.758-4.25l-3.8-6.852A.957.957,0,0,1,5.241,2.07c1.566-2.212,5.616.539,8.226,2.7l.321.222a15.02,15.02,0,0,1,8.144-2.4h9.949a15.029,15.029,0,0,1,6.78,1.61C40.2,2.989,44.283-.117,46.793,0a.943.943,0,0,1,.794.506.957.957,0,0,1-.033.946l-4.05,6.6a15.275,15.275,0,0,1,2.7,4.8,8.245,8.245,0,0,1,4.244,13.9L58.086,51.8A41.539,41.539,0,0,1,0,52.509Z" transform="translate(0.552 0.618)"/></g><g transform="translate(84) rotate(180)"><path class="a" d="M-12,0C-5.4,0,0,4.65,0,10.5S-5.4,21-12,21a5.624,5.624,0,0,1-1.65-.15L-21,24V17.4a9.766,9.766,0,0,1-3-6.9C-24,4.65-18.6,0-12,0Z" transform="rotate(-180)"/></g></g></svg>