<?xml version="1.0" encoding="UTF-8"?>
<svg width="40px" height="40px" viewBox="0 0 40 40" version="1.1" xmlns="http://www.w3.org/2000/svg" xmlns:xlink="http://www.w3.org/1999/xlink">
    <!-- Generator: Sketch 48.2 (47327) - http://www.bohemiancoding.com/sketch -->
    <title>logo-twitter</title>
    <desc>Created with Sketch.</desc>
    <defs></defs>
    <g id="UserfeedsMain-Copy" stroke="none" stroke-width="1" fill="none" fill-rule="evenodd" transform="translate(-1090.000000, -322.000000)">
        <g id="Group-46-Copy-2" transform="translate(1090.000000, 322.000000)">
            <g id="gitter">
                <g id="logo-twitter">
                    <circle id="Oval-6" fill="#1CA1F1" cx="20" cy="20" r="20"></circle>
                    <path d="M30,15.9175287 C29.3377387,16.2112362 28.6260413,16.4097837 27.8789738,16.49903 C28.6414688,16.0420062 29.2270238,15.3182787 29.5027275,14.455925 C28.7892225,14.8791312 27.9988875,15.1864662 27.1576875,15.3521 C26.4840525,14.63435 25.524285,14.18588 24.4621688,14.18588 C22.4226,14.18588 20.7691425,15.8393412 20.7691425,17.878715 C20.7691425,18.1681812 20.801805,18.44999 20.8647488,18.7202975 C17.7955988,18.5663037 15.0744863,17.0960937 13.2530813,14.8618362 C12.9352013,15.40727 12.7531125,16.04162 12.7531125,16.7184087 C12.7531125,17.9995925 13.40508,19.1299325 14.3959612,19.7921937 C13.79061,19.773035 13.2211913,19.6068875 12.7232738,19.33028 C12.723015,19.3457112 12.7229588,19.3611462 12.7229588,19.376705 C12.7229588,21.165995 13.9959038,22.658585 15.6853088,22.9978175 C15.3754012,23.08217 15.049155,23.1273125 14.7123713,23.1273125 C14.4744038,23.1273125 14.2430625,23.1041637 14.0175712,23.0610837 C14.4875175,24.5282112 15.851325,25.5959262 17.467305,25.6257613 C16.20342,26.6161963 14.6111025,27.20657 12.880935,27.20657 C12.5828513,27.2065662 12.288885,27.18908 12,27.155 C13.6343025,28.20278 15.5754262,28.8141162 17.6608988,28.8141162 C24.4535512,28.8141162 28.1679862,23.186975 28.1679862,18.3069312 C28.1679862,18.1468287 28.16439,17.9875662 28.1573138,17.8292037 C28.8787912,17.3085275 29.5049175,16.6580975 30,15.9175287 Z" id="Shape" fill="#FFFFFF" fill-rule="nonzero"></path>
                </g>
            </g>
        </g>
    </g>
</svg>